<svg width="83" height="27" viewBox="0 0 83 27" fill="none" xmlns="http://www.w3.org/2000/svg">
<path d="M1.71387 1.80469L9.61084 19.9585L17.5342 1.80469H18.5757V21H17.8638V2.85938L9.90088 21H9.33398L1.41064 2.95166V21H0.69873V1.80469H1.71387ZM28.6084 21.2637C27.457 21.2637 26.3979 20.9561 25.4312 20.3408C24.4731 19.7168 23.7217 18.8643 23.1768 17.7832C22.6318 16.7021 22.3594 15.5024 22.3594 14.1841V13.5908C22.3594 12.2725 22.623 11.064 23.1504 9.96533C23.6777 8.8667 24.4028 8.00977 25.3257 7.39453C26.2485 6.7793 27.2549 6.47168 28.3447 6.47168C29.9355 6.47168 31.2363 7.03857 32.2471 8.17236C33.2578 9.30615 33.7632 10.7959 33.7632 12.6416V13.3931H23.0713V14.1709C23.0713 15.3311 23.313 16.4077 23.7964 17.4009C24.2886 18.3853 24.9609 19.1587 25.8135 19.7212C26.6748 20.2837 27.6064 20.5649 28.6084 20.5649C29.5664 20.5649 30.3794 20.4067 31.0474 20.0903C31.7241 19.7651 32.3218 19.2686 32.8403 18.6006L33.3413 18.9565C32.2778 20.4946 30.7002 21.2637 28.6084 21.2637ZM28.3447 7.18359C26.9561 7.18359 25.7783 7.70215 24.8115 8.73926C23.8447 9.76758 23.2778 11.0815 23.1108 12.6812H33.0513V12.5098C33.0513 11.543 32.8447 10.6465 32.4316 9.82031C32.0273 8.98535 31.4648 8.33936 30.7441 7.88232C30.0322 7.4165 29.2324 7.18359 28.3447 7.18359ZM37.9688 21H37.2568V0.75H37.9688V21ZM41.5679 13.5908C41.5679 12.2285 41.8271 11.0068 42.3457 9.92578C42.873 8.83594 43.6113 7.98779 44.5605 7.38135C45.5186 6.7749 46.5996 6.47168 47.8037 6.47168C48.999 6.47168 50.0713 6.76611 51.0205 7.35498C51.9697 7.94385 52.708 8.77881 53.2354 9.85986C53.7715 10.9409 54.0439 12.1582 54.0527 13.5117V14.1445C54.0527 15.5156 53.7935 16.7417 53.2749 17.8228C52.7563 18.9038 52.0181 19.7476 51.0601 20.354C50.1108 20.9604 49.0342 21.2637 47.8301 21.2637C46.626 21.2637 45.5449 20.9648 44.5869 20.3672C43.6377 19.7695 42.8994 18.9346 42.3721 17.8623C41.8447 16.7812 41.5767 15.5684 41.5679 14.2236V13.5908ZM42.2798 14.1445C42.2798 15.3311 42.5127 16.4209 42.9785 17.4141C43.4531 18.3984 44.1079 19.1675 44.9429 19.7212C45.7866 20.2749 46.749 20.5518 47.8301 20.5518C49.4561 20.5518 50.7788 19.9409 51.7983 18.7192C52.8267 17.4976 53.3408 15.9243 53.3408 13.9995V13.5908C53.3408 12.4219 53.1035 11.3408 52.6289 10.3477C52.1543 9.35449 51.4951 8.58105 50.6514 8.02734C49.8164 7.46484 48.8672 7.18359 47.8037 7.18359C46.1777 7.18359 44.8506 7.80322 43.8223 9.04248C42.7939 10.2817 42.2798 11.8418 42.2798 13.7227V14.1445ZM56.8608 13.7227C56.8608 11.4463 57.3398 9.6709 58.2979 8.39648C59.2559 7.11328 60.5698 6.47168 62.2397 6.47168C63.312 6.47168 64.2568 6.71338 65.0742 7.19678C65.9004 7.68018 66.5684 8.40088 67.0781 9.35889V0.75H67.79V21H67.0781V18.7192C66.5947 19.5278 65.9312 20.1562 65.0874 20.6045C64.2437 21.0439 63.2856 21.2637 62.2134 21.2637C60.561 21.2637 59.2559 20.6089 58.2979 19.2993C57.3398 17.9897 56.8608 16.1924 56.8608 13.9072V13.7227ZM57.5991 13.9995C57.5991 16.021 57.999 17.6206 58.7988 18.7983C59.5986 19.9673 60.7324 20.5518 62.2002 20.5518C63.3779 20.5518 64.3843 20.2925 65.2192 19.7739C66.0542 19.2466 66.6738 18.4775 67.0781 17.4668V10.7827C66.2607 8.3833 64.6436 7.18359 62.2266 7.18359C60.7676 7.18359 59.6294 7.75928 58.812 8.91064C58.0034 10.062 57.5991 11.7583 57.5991 13.9995ZM76.6758 19.8926L76.7681 19.6289L81.6987 6.73535H82.4897L76.1089 23.4785L75.7925 24.2695C75.1069 25.9307 73.9731 26.7612 72.3911 26.7612C71.8813 26.7612 71.5298 26.7129 71.3364 26.6162L71.3232 25.9438C71.6045 26.0229 71.9253 26.0625 72.2856 26.0625C73.0327 26.0625 73.6523 25.8428 74.1445 25.4033C74.6367 24.9727 75.063 24.2651 75.4233 23.2808L76.2935 20.9209L70.6113 6.73535H71.3892L76.6758 19.8926Z" fill="white"/>
</svg>
